<?xml version="1.0" encoding="UTF-8"?>
<svg xmlns="http://www.w3.org/2000/svg" width="976.00" height="540.00" viewBox="0 0 976.00 540.00">
  <defs>
    <style>
      .bg { fill: #0b1020; }
      .panel { fill: #121a2f; stroke: #243152; stroke-width: 1; }
      .grid-x { stroke: #1e2a44; stroke-width: 1; stroke-dasharray: 2 4; }
      .grid-x-sub { stroke: #18233a; stroke-width: 1; }
      .grid-spectrum { stroke: #263555; stroke-width: 1; stroke-dasharray: 2 4; }
      .grid-spectrum-sub { stroke: #1a2740; stroke-width: 1; }
      .mark-max { stroke: #f87171; stroke-width: 1; stroke-dasharray: 4 3; opacity: 0.9; }
      .mark-min { stroke: #60a5fa; stroke-width: 1; stroke-dasharray: 4 3; opacity: 0.9; }
      .mark-mean { stroke: #a3e635; stroke-width: 1; stroke-dasharray: 2 3; opacity: 0.85; }
      .mark-peak { stroke: #fbbf24; stroke-width: 1; stroke-dasharray: 3 3; opacity: 0.85; }
      .signal { fill: none; stroke: #38bdf8; stroke-width: 1.25; stroke-linejoin: round; stroke-linecap: round; }
      .spectrum { fill: none; stroke: #c084fc; stroke-width: 1.25; stroke-linejoin: round; stroke-linecap: round; }
      .label-x { fill: #94a3b8; font: 11px ui-sans-serif, system-ui, -apple-system, sans-serif; text-anchor: middle; }
      .label-x-end { text-anchor: end; }
      .label-y { fill: #cbd5e1; font: 11px ui-sans-serif, system-ui, -apple-system, sans-serif; text-anchor: end; }
      .label-y-name { fill: #64748b; font: 10px ui-sans-serif, system-ui, -apple-system, sans-serif; text-anchor: end; }
      .title { fill: #e2e8f0; font: 600 13px ui-sans-serif, system-ui, -apple-system, sans-serif; }
      .subtitle { fill: #94a3b8; font: 12px ui-sans-serif, system-ui, -apple-system, sans-serif; }
      .analysis-title { fill: #cbd5e1; font: 600 11px ui-sans-serif, system-ui, -apple-system, sans-serif; }
      .analysis-line { fill: #e2e8f0; font: 11px ui-monospace, SFMono-Regular, Menlo, monospace; }
      .decode-panel { fill: #111b31; stroke: #33466e; stroke-width: 1; }
      .decode-event { fill: #164e63; stroke: #22d3ee; stroke-width: 1; }
      .decode-event-error { fill: #7f1d1d; stroke: #fb7185; stroke-width: 1; }
      .decode-title { fill: #cbd5e1; font: 600 10px ui-sans-serif, system-ui, -apple-system, sans-serif; }
      .decode-label { fill: #ecfeff; font: 10px ui-monospace, SFMono-Regular, Menlo, monospace; text-anchor: middle; }
      .spectrum-title { fill: #cbd5e1; font: 600 11px ui-sans-serif, system-ui, -apple-system, sans-serif; }
    </style>
  </defs>
  <rect class="bg" width="100%" height="100%"/>
  <rect class="panel" x="88.00" y="44.00" width="864.00" height="400.00" rx="6"/>
  <line class="grid-x-sub" x1="103.00" y1="44.00" x2="103.00" y2="444.00"/><line class="grid-x-sub" x1="119.00" y1="44.00" x2="119.00" y2="444.00"/><line class="grid-x-sub" x1="134.00" y1="44.00" x2="134.00" y2="444.00"/><line class="grid-x-sub" x1="149.00" y1="44.00" x2="149.00" y2="444.00"/><line class="grid-x-sub" x1="165.00" y1="44.00" x2="165.00" y2="444.00"/><line class="grid-x-sub" x1="180.00" y1="44.00" x2="180.00" y2="444.00"/><line class="grid-x-sub" x1="196.00" y1="44.00" x2="196.00" y2="444.00"/><line class="grid-x-sub" x1="211.00" y1="44.00" x2="211.00" y2="444.00"/><line class="grid-x-sub" x1="226.00" y1="44.00" x2="226.00" y2="444.00"/><line class="grid-x-sub" x1="257.00" y1="44.00" x2="257.00" y2="444.00"/><line class="grid-x-sub" x1="272.00" y1="44.00" x2="272.00" y2="444.00"/><line class="grid-x-sub" x1="288.00" y1="44.00" x2="288.00" y2="444.00"/><line class="grid-x-sub" x1="303.00" y1="44.00" x2="303.00" y2="444.00"/><line class="grid-x-sub" x1="318.00" y1="44.00" x2="318.00" y2="444.00"/><line class="grid-x-sub" x1="334.00" y1="44.00" x2="334.00" y2="444.00"/><line class="grid-x-sub" x1="349.00" y1="44.00" x2="349.00" y2="444.00"/><line class="grid-x-sub" x1="364.00" y1="44.00" x2="364.00" y2="444.00"/><line class="grid-x-sub" x1="380.00" y1="44.00" x2="380.00" y2="444.00"/><line class="grid-x-sub" x1="411.00" y1="44.00" x2="411.00" y2="444.00"/><line class="grid-x-sub" x1="426.00" y1="44.00" x2="426.00" y2="444.00"/><line class="grid-x-sub" x1="441.00" y1="44.00" x2="441.00" y2="444.00"/><line class="grid-x-sub" x1="457.00" y1="44.00" x2="457.00" y2="444.00"/><line class="grid-x-sub" x1="472.00" y1="44.00" x2="472.00" y2="444.00"/><line class="grid-x-sub" x1="487.00" y1="44.00" x2="487.00" y2="444.00"/><line class="grid-x-sub" x1="503.00" y1="44.00" x2="503.00" y2="444.00"/><line class="grid-x-sub" x1="518.00" y1="44.00" x2="518.00" y2="444.00"/><line class="grid-x-sub" x1="533.00" y1="44.00" x2="533.00" y2="444.00"/><line class="grid-x-sub" x1="564.00" y1="44.00" x2="564.00" y2="444.00"/><line class="grid-x-sub" x1="580.00" y1="44.00" x2="580.00" y2="444.00"/><line class="grid-x-sub" x1="595.00" y1="44.00" x2="595.00" y2="444.00"/><line class="grid-x-sub" x1="610.00" y1="44.00" x2="610.00" y2="444.00"/><line class="grid-x-sub" x1="626.00" y1="44.00" x2="626.00" y2="444.00"/><line class="grid-x-sub" x1="641.00" y1="44.00" x2="641.00" y2="444.00"/><line class="grid-x-sub" x1="656.00" y1="44.00" x2="656.00" y2="444.00"/><line class="grid-x-sub" x1="672.00" y1="44.00" x2="672.00" y2="444.00"/><line class="grid-x-sub" x1="687.00" y1="44.00" x2="687.00" y2="444.00"/><line class="grid-x-sub" x1="718.00" y1="44.00" x2="718.00" y2="444.00"/><line class="grid-x-sub" x1="733.00" y1="44.00" x2="733.00" y2="444.00"/><line class="grid-x-sub" x1="748.00" y1="44.00" x2="748.00" y2="444.00"/><line class="grid-x-sub" x1="764.00" y1="44.00" x2="764.00" y2="444.00"/><line class="grid-x-sub" x1="779.00" y1="44.00" x2="779.00" y2="444.00"/><line class="grid-x-sub" x1="795.00" y1="44.00" x2="795.00" y2="444.00"/><line class="grid-x-sub" x1="810.00" y1="44.00" x2="810.00" y2="444.00"/><line class="grid-x-sub" x1="825.00" y1="44.00" x2="825.00" y2="444.00"/><line class="grid-x-sub" x1="841.00" y1="44.00" x2="841.00" y2="444.00"/><line class="grid-x-sub" x1="871.00" y1="44.00" x2="871.00" y2="444.00"/><line class="grid-x-sub" x1="887.00" y1="44.00" x2="887.00" y2="444.00"/><line class="grid-x-sub" x1="902.00" y1="44.00" x2="902.00" y2="444.00"/><line class="grid-x-sub" x1="917.00" y1="44.00" x2="917.00" y2="444.00"/><line class="grid-x-sub" x1="933.00" y1="44.00" x2="933.00" y2="444.00"/><line class="grid-x-sub" x1="948.00" y1="44.00" x2="948.00" y2="444.00"/>
  <line class="grid-x" x1="88.00" y1="44.00" x2="88.00" y2="444.00"/><line class="grid-x" x1="242.00" y1="44.00" x2="242.00" y2="444.00"/><line class="grid-x" x1="395.00" y1="44.00" x2="395.00" y2="444.00"/><line class="grid-x" x1="549.00" y1="44.00" x2="549.00" y2="444.00"/><line class="grid-x" x1="702.00" y1="44.00" x2="702.00" y2="444.00"/><line class="grid-x" x1="856.00" y1="44.00" x2="856.00" y2="444.00"/>
  <line class="mark-max" x1="88.00" y1="65.43" x2="952.00" y2="65.43"/>
<text class="label-y" x="78.00" y="69.43">3.3</text>
<text class="label-y-name" x="78.00" y="55.43">max</text><line class="mark-mean" x1="88.00" y1="230.77" x2="952.00" y2="230.77"/>
<text class="label-y" x="78.00" y="234.77">1.8</text>
<text class="label-y-name" x="78.00" y="220.77">avg</text><line class="mark-min" x1="88.00" y1="422.57" x2="952.00" y2="422.57"/>
<text class="label-y" x="78.00" y="426.57">0</text>
<text class="label-y-name" x="78.00" y="412.57">min</text>
  <polyline class="signal" points="88.00,65.43 89.00,65.43 90.00,65.43 91.00,65.43 92.00,65.43 93.00,65.43 94.00,65.43 95.00,65.43 96.00,65.43 97.00,65.43 98.00,65.43 99.00,65.43 100.00,65.43 101.00,65.43 102.00,65.43 103.00,65.43 104.00,65.43 105.00,65.43 106.00,65.43 107.00,65.43 108.00,65.43 109.00,65.43 110.00,65.43 111.00,65.43 112.00,65.43 113.00,65.43 114.00,65.43 115.00,65.43 116.00,65.43 117.00,65.43 118.00,65.43 119.00,65.43 120.00,422.57 121.00,422.57 122.00,422.57 123.00,422.57 124.00,422.57 125.00,422.57 126.00,422.57 127.00,422.57 128.00,422.57 129.00,422.57 130.00,422.57 131.00,422.57 132.00,422.57 133.00,422.57 134.00,422.57 135.00,422.57 136.00,422.57 137.00,422.57 138.00,422.57 139.00,422.57 140.00,422.57 141.00,422.57 142.00,422.57 143.00,422.57 144.00,422.57 145.00,422.57 146.00,422.57 147.00,422.57 148.00,422.57 149.00,422.57 150.00,422.57 151.00,422.57 152.00,422.57 153.00,422.57 154.00,422.57 155.00,422.57 156.00,422.57 157.00,422.57 158.00,422.57 159.00,422.57 160.00,422.57 161.00,422.57 162.00,422.57 163.00,422.57 164.00,422.57 165.00,422.57 166.00,422.57 167.00,422.57 168.00,422.57 169.00,422.57 170.00,422.57 171.00,422.57 172.00,422.57 173.00,422.57 174.00,422.57 175.00,422.57 176.00,422.57 177.00,422.57 178.00,422.57 179.00,422.57 180.00,422.57 181.00,422.57 182.00,422.57 183.00,422.57 184.00,65.43 185.00,65.43 186.00,65.43 187.00,65.43 188.00,65.43 189.00,65.43 190.00,65.43 191.00,65.43 192.00,65.43 193.00,65.43 194.00,65.43 195.00,65.43 196.00,65.43 197.00,65.43 198.00,65.43 199.00,65.43 200.00,422.57 201.00,422.57 202.00,422.57 203.00,422.57 204.00,422.57 205.00,422.57 206.00,422.57 207.00,422.57 208.00,422.57 209.00,422.57 210.00,422.57 211.00,422.57 212.00,422.57 213.00,422.57 214.00,422.57 215.00,422.57 216.00,422.57 217.00,422.57 218.00,422.57 219.00,422.57 220.00,422.57 221.00,422.57 222.00,422.57 223.00,422.57 224.00,422.57 225.00,422.57 226.00,422.57 227.00,422.57 228.00,422.57 229.00,422.57 230.00,422.57 231.00,422.57 232.00,65.43 233.00,65.43 234.00,65.43 235.00,65.43 236.00,65.43 237.00,65.43 238.00,65.43 239.00,65.43 240.00,65.43 241.00,65.43 242.00,65.43 243.00,65.43 244.00,65.43 245.00,65.43 246.00,65.43 247.00,65.43 248.00,422.57 249.00,422.57 250.00,422.57 251.00,422.57 252.00,422.57 253.00,422.57 254.00,422.57 255.00,422.57 256.00,422.57 257.00,422.57 258.00,422.57 259.00,422.57 260.00,422.57 261.00,422.57 262.00,422.57 263.00,422.57 264.00,65.43 265.00,65.43 266.00,65.43 267.00,65.43 268.00,65.43 269.00,65.43 270.00,65.43 271.00,65.43 272.00,65.43 273.00,65.43 274.00,65.43 275.00,65.43 276.00,65.43 277.00,65.43 278.00,65.43 279.00,65.43 280.00,422.57 281.00,422.57 282.00,422.57 283.00,422.57 284.00,422.57 285.00,422.57 286.00,422.57 287.00,422.57 288.00,422.57 289.00,422.57 290.00,422.57 291.00,422.57 292.00,422.57 293.00,422.57 294.00,422.57 295.00,422.57 296.00,65.43 297.00,65.43 298.00,65.43 299.00,65.43 300.00,65.43 301.00,65.43 302.00,65.43 303.00,65.43 304.00,65.43 305.00,65.43 306.00,65.43 307.00,65.43 308.00,65.43 309.00,65.43 310.00,65.43 311.00,65.43 312.00,422.57 313.00,422.57 314.00,422.57 315.00,422.57 316.00,422.57 317.00,422.57 318.00,422.57 319.00,422.57 320.00,422.57 321.00,422.57 322.00,422.57 323.00,422.57 324.00,422.57 325.00,422.57 326.00,422.57 327.00,422.57 328.00,65.43 329.00,65.43 330.00,65.43 331.00,65.43 332.00,65.43 333.00,65.43 334.00,65.43 335.00,65.43 336.00,65.43 337.00,65.43 338.00,65.43 339.00,65.43 340.00,65.43 341.00,65.43 342.00,65.43 343.00,65.43 344.00,422.57 345.00,422.57 346.00,422.57 347.00,422.57 348.00,422.57 349.00,422.57 350.00,422.57 351.00,422.57 352.00,422.57 353.00,422.57 354.00,422.57 355.00,422.57 356.00,422.57 357.00,422.57 358.00,422.57 359.00,422.57 360.00,422.57 361.00,422.57 362.00,422.57 363.00,422.57 364.00,422.57 365.00,422.57 366.00,422.57 367.00,422.57 368.00,422.57 369.00,422.57 370.00,422.57 371.00,422.57 372.00,422.57 373.00,422.57 374.00,422.57 375.00,422.57 376.00,65.43 377.00,65.43 378.00,65.43 379.00,65.43 380.00,65.43 381.00,65.43 382.00,65.43 383.00,65.43 384.00,65.43 385.00,65.43 386.00,65.43 387.00,65.43 388.00,65.43 389.00,65.43 390.00,65.43 391.00,65.43 392.00,65.43 393.00,65.43 394.00,65.43 395.00,65.43 396.00,65.43 397.00,65.43 398.00,65.43 399.00,65.43 400.00,65.43 401.00,65.43 402.00,65.43 403.00,65.43 404.00,65.43 405.00,65.43 406.00,65.43 407.00,65.43 408.00,422.57 409.00,422.57 410.00,422.57 411.00,422.57 412.00,422.57 413.00,422.57 414.00,422.57 415.00,422.57 416.00,422.57 417.00,422.57 418.00,422.57 419.00,422.57 420.00,422.57 421.00,422.57 422.00,422.57 423.00,422.57 424.00,65.43 425.00,65.43 426.00,65.43 427.00,65.43 428.00,65.43 429.00,65.43 430.00,65.43 431.00,65.43 432.00,65.43 433.00,65.43 434.00,65.43 435.00,65.43 436.00,65.43 437.00,65.43 438.00,65.43 439.00,65.43 440.00,422.57 441.00,422.57 442.00,422.57 443.00,422.57 444.00,422.57 445.00,422.57 446.00,422.57 447.00,422.57 448.00,422.57 449.00,422.57 450.00,422.57 451.00,422.57 452.00,422.57 453.00,422.57 454.00,422.57 455.00,422.57 456.00,422.57 457.00,422.57 458.00,422.57 459.00,422.57 460.00,422.57 461.00,422.57 462.00,422.57 463.00,422.57 464.00,422.57 465.00,422.57 466.00,422.57 467.00,422.57 468.00,422.57 469.00,422.57 470.00,422.57 471.00,422.57 472.00,422.57 473.00,422.57 474.00,422.57 475.00,422.57 476.00,422.57 477.00,422.57 478.00,422.57 479.00,422.57 480.00,422.57 481.00,422.57 482.00,422.57 483.00,422.57 484.00,422.57 485.00,422.57 486.00,422.57 487.00,422.57 488.00,65.43 489.00,65.43 490.00,65.43 491.00,65.43 492.00,65.43 493.00,65.43 494.00,65.43 495.00,65.43 496.00,65.43 497.00,65.43 498.00,65.43 499.00,65.43 500.00,65.43 501.00,65.43 502.00,65.43 503.00,65.43 504.00,65.43 505.00,65.43 506.00,65.43 507.00,65.43 508.00,65.43 509.00,65.43 510.00,65.43 511.00,65.43 512.00,65.43 513.00,65.43 514.00,65.43 515.00,65.43 516.00,65.43 517.00,65.43 518.00,65.43 519.00,65.43 520.00,422.57 521.00,422.57 522.00,422.57 523.00,422.57 524.00,422.57 525.00,422.57 526.00,422.57 527.00,422.57 528.00,422.57 529.00,422.57 530.00,422.57 531.00,422.57 532.00,422.57 533.00,422.57 534.00,422.57 535.00,422.57 536.00,65.43 537.00,65.43 538.00,65.43 539.00,65.43 540.00,65.43 541.00,65.43 542.00,65.43 543.00,65.43 544.00,65.43 545.00,65.43 546.00,65.43 547.00,65.43 548.00,65.43 549.00,65.43 550.00,65.43 551.00,65.43 552.00,65.43 553.00,65.43 554.00,65.43 555.00,65.43 556.00,65.43 557.00,65.43 558.00,65.43 559.00,65.43 560.00,65.43 561.00,65.43 562.00,65.43 563.00,65.43 564.00,65.43 565.00,65.43 566.00,65.43 567.00,65.43 568.00,422.57 569.00,422.57 570.00,422.57 571.00,422.57 572.00,422.57 573.00,422.57 574.00,422.57 575.00,422.57 576.00,422.57 577.00,422.57 578.00,422.57 579.00,422.57 580.00,422.57 581.00,422.57 582.00,422.57 583.00,422.57 584.00,65.43 585.00,65.43 586.00,65.43 587.00,65.43 588.00,65.43 589.00,65.43 590.00,65.43 591.00,65.43 592.00,65.43 593.00,65.43 594.00,65.43 595.00,65.43 596.00,65.43 597.00,65.43 598.00,65.43 599.00,65.43 600.00,422.57 601.00,422.57 602.00,422.57 603.00,422.57 604.00,422.57 605.00,422.57 606.00,422.57 607.00,422.57 608.00,422.57 609.00,422.57 610.00,422.57 611.00,422.57 612.00,422.57 613.00,422.57 614.00,422.57 615.00,422.57 616.00,422.57 617.00,422.57 618.00,422.57 619.00,422.57 620.00,422.57 621.00,422.57 622.00,422.57 623.00,422.57 624.00,422.57 625.00,422.57 626.00,422.57 627.00,422.57 628.00,422.57 629.00,422.57 630.00,422.57 631.00,422.57 632.00,422.57 633.00,422.57 634.00,422.57 635.00,422.57 636.00,422.57 637.00,422.57 638.00,422.57 639.00,422.57 640.00,422.57 641.00,422.57 642.00,422.57 643.00,422.57 644.00,422.57 645.00,422.57 646.00,422.57 647.00,422.57 648.00,65.43 649.00,65.43 650.00,65.43 651.00,65.43 652.00,65.43 653.00,65.43 654.00,65.43 655.00,65.43 656.00,65.43 657.00,65.43 658.00,65.43 659.00,65.43 660.00,65.43 661.00,65.43 662.00,65.43 663.00,65.43 664.00,65.43 665.00,65.43 666.00,65.43 667.00,65.43 668.00,65.43 669.00,65.43 670.00,65.43 671.00,65.43 672.00,65.43 673.00,65.43 674.00,65.43 675.00,65.43 676.00,65.43 677.00,65.43 678.00,65.43 679.00,65.43 680.00,422.57 681.00,422.57 682.00,422.57 683.00,422.57 684.00,422.57 685.00,422.57 686.00,422.57 687.00,422.57 688.00,422.57 689.00,422.57 690.00,422.57 691.00,422.57 692.00,422.57 693.00,422.57 694.00,422.57 695.00,422.57 696.00,65.43 697.00,65.43 698.00,65.43 699.00,65.43 700.00,65.43 701.00,65.43 702.00,65.43 703.00,65.43 704.00,65.43 705.00,65.43 706.00,65.43 707.00,65.43 708.00,65.43 709.00,65.43 710.00,65.43 711.00,65.43 712.00,65.43 713.00,65.43 714.00,65.43 715.00,65.43 716.00,65.43 717.00,65.43 718.00,65.43 719.00,65.43 720.00,65.43 721.00,65.43 722.00,65.43 723.00,65.43 724.00,65.43 725.00,65.43 726.00,65.43 727.00,65.43 728.00,422.57 729.00,422.57 730.00,422.57 731.00,422.57 732.00,422.57 733.00,422.57 734.00,422.57 735.00,422.57 736.00,422.57 737.00,422.57 738.00,422.57 739.00,422.57 740.00,422.57 741.00,422.57 742.00,422.57 743.00,422.57 744.00,65.43 745.00,65.43 746.00,65.43 747.00,65.43 748.00,65.43 749.00,65.43 750.00,65.43 751.00,65.43 752.00,65.43 753.00,65.43 754.00,65.43 755.00,65.43 756.00,65.43 757.00,65.43 758.00,65.43 759.00,65.43 760.00,422.57 761.00,422.57 762.00,422.57 763.00,422.57 764.00,422.57 765.00,422.57 766.00,422.57 767.00,422.57 768.00,422.57 769.00,422.57 770.00,422.57 771.00,422.57 772.00,422.57 773.00,422.57 774.00,422.57 775.00,422.57 776.00,65.43 777.00,65.43 778.00,65.43 779.00,65.43 780.00,65.43 781.00,65.43 782.00,65.43 783.00,65.43 784.00,65.43 785.00,65.43 786.00,65.43 787.00,65.43 788.00,65.43 789.00,65.43 790.00,65.43 791.00,65.43 792.00,65.43 793.00,65.43 794.00,65.43 795.00,65.43 796.00,65.43 797.00,65.43 798.00,65.43 799.00,65.43 800.00,65.43 801.00,65.43 802.00,65.43 803.00,65.43 804.00,65.43 805.00,65.43 806.00,65.43 807.00,65.43 808.00,65.43 809.00,65.43 810.00,65.43 811.00,65.43 812.00,65.43 813.00,65.43 814.00,65.43 815.00,65.43 816.00,65.43 817.00,65.43 818.00,65.43 819.00,65.43 820.00,65.43 821.00,65.43 822.00,65.43 823.00,65.43 824.00,65.43 825.00,65.43 826.00,65.43 827.00,65.43 828.00,65.43 829.00,65.43 830.00,65.43 831.00,65.43 832.00,65.43 833.00,65.43 834.00,65.43 835.00,65.43 836.00,65.43 837.00,65.43 838.00,65.43 839.00,65.43 840.00,422.57 841.00,422.57 842.00,422.57 843.00,422.57 844.00,422.57 845.00,422.57 846.00,422.57 847.00,422.57 848.00,422.57 849.00,422.57 850.00,422.57 851.00,422.57 852.00,422.57 853.00,422.57 854.00,422.57 855.00,422.57 856.00,65.43 857.00,65.43 858.00,65.43 859.00,65.43 860.00,65.43 861.00,65.43 862.00,65.43 863.00,65.43 864.00,65.43 865.00,65.43 866.00,65.43 867.00,65.43 868.00,65.43 869.00,65.43 870.00,65.43 871.00,65.43 872.00,65.43 873.00,65.43 874.00,65.43 875.00,65.43 876.00,65.43 877.00,65.43 878.00,65.43 879.00,65.43 880.00,65.43 881.00,65.43 882.00,65.43 883.00,65.43 884.00,65.43 885.00,65.43 886.00,65.43 887.00,65.43 888.00,422.57 889.00,422.57 890.00,422.57 891.00,422.57 892.00,422.57 893.00,422.57 894.00,422.57 895.00,422.57 896.00,422.57 897.00,422.57 898.00,422.57 899.00,422.57 900.00,422.57 901.00,422.57 902.00,422.57 903.00,422.57 904.00,65.43 905.00,65.43 906.00,65.43 907.00,65.43 908.00,65.43 909.00,65.43 910.00,65.43 911.00,65.43 912.00,65.43 913.00,65.43 914.00,65.43 915.00,65.43 916.00,65.43 917.00,65.43 918.00,65.43 919.00,65.43 920.00,65.43 921.00,65.43 922.00,65.43 923.00,65.43 924.00,65.43 925.00,65.43 926.00,65.43 927.00,65.43 928.00,65.43 929.00,65.43 930.00,65.43 931.00,65.43 932.00,65.43 933.00,65.43 934.00,65.43 935.00,65.43 936.00,65.43 937.00,65.43 938.00,65.43 939.00,65.43 940.00,65.43 941.00,65.43 942.00,65.43 943.00,65.43 944.00,65.43 945.00,65.43 946.00,65.43 947.00,65.43 948.00,65.43 949.00,65.43 950.00,65.43 951.00,65.43"/>
  <text class="label-x" x="88.00" y="464.00">0s</text><text class="label-x" x="242.00" y="464.00">1ms</text><text class="label-x" x="395.00" y="464.00">2ms</text><text class="label-x" x="549.00" y="464.00">3ms</text><text class="label-x" x="702.00" y="464.00">4ms</text><text class="label-x" x="856.00" y="464.00">5ms</text>
  <text class="title" x="88.00" y="18.00">rigol2spice — uart-hello.csv · RX</text>
  <rect class="decode-panel" x="88.00" y="496.00" width="864.00" height="44.00" rx="5"/>
<text class="decode-title" x="92.00" y="508.00">UART · 9600 baud</text><clipPath id="decode-clip-0"><rect x="120.00" y="511.00" width="160.00" height="24.00"/></clipPath>
<g class="decode-group">
  <title>0x48 · ASCII &quot;H&quot;</title>
  <rect class="decode-event" x="120.00" y="512.00" width="160.00" height="22.00" rx="2"/>
  <text class="decode-label" clip-path="url(#decode-clip-0)" x="200.00" y="527.00">0x48 · ASCII &quot;H&quot;</text>
</g><clipPath id="decode-clip-1"><rect x="279.00" y="511.00" width="160.00" height="24.00"/></clipPath>
<g class="decode-group">
  <title>0x65 · ASCII &quot;e&quot;</title>
  <rect class="decode-event" x="279.00" y="512.00" width="160.00" height="22.00" rx="2"/>
  <text class="decode-label" clip-path="url(#decode-clip-1)" x="359.00" y="527.00">0x65 · ASCII &quot;e&quot;</text>
</g><clipPath id="decode-clip-2"><rect x="440.00" y="511.00" width="160.00" height="24.00"/></clipPath>
<g class="decode-group">
  <title>0x6C · ASCII &quot;l&quot;</title>
  <rect class="decode-event" x="440.00" y="512.00" width="160.00" height="22.00" rx="2"/>
  <text class="decode-label" clip-path="url(#decode-clip-2)" x="520.00" y="527.00">0x6C · ASCII &quot;l&quot;</text>
</g><clipPath id="decode-clip-3"><rect x="600.00" y="511.00" width="160.00" height="24.00"/></clipPath>
<g class="decode-group">
  <title>0x6C · ASCII &quot;l&quot;</title>
  <rect class="decode-event" x="600.00" y="512.00" width="160.00" height="22.00" rx="2"/>
  <text class="decode-label" clip-path="url(#decode-clip-3)" x="680.00" y="527.00">0x6C · ASCII &quot;l&quot;</text>
</g><clipPath id="decode-clip-4"><rect x="759.00" y="511.00" width="160.00" height="24.00"/></clipPath>
<g class="decode-group">
  <title>0x6F · ASCII &quot;o&quot;</title>
  <rect class="decode-event" x="759.00" y="512.00" width="160.00" height="22.00" rx="2"/>
  <text class="decode-label" clip-path="url(#decode-clip-4)" x="839.00" y="527.00">0x6F · ASCII &quot;o&quot;</text>
</g>
  
  
</svg>